<svg width="40" height="41" viewBox="0 0 40 41" fill="none" xmlns="http://www.w3.org/2000/svg">
<circle cx="20" cy="20.5" r="20" fill="#F80000"/>
<path fill-rule="evenodd" clip-rule="evenodd" d="M11.6667 15.5C11.6667 15.0397 12.0398 14.6666 12.5 14.6666H27.5C27.9602 14.6666 28.3333 15.0397 28.3333 15.5C28.3333 15.9602 27.9602 16.3333 27.5 16.3333H12.5C12.0398 16.3333 11.6667 15.9602 11.6667 15.5Z" fill="black"/>
<path fill-rule="evenodd" clip-rule="evenodd" d="M18.3333 13C18.1123 13 17.9003 13.0878 17.7441 13.2441C17.5878 13.4003 17.5 13.6123 17.5 13.8333V14.6666H22.5V13.8333C22.5 13.6123 22.4122 13.4003 22.2559 13.2441C22.0996 13.0878 21.8877 13 21.6667 13H18.3333ZM24.1667 14.6666V13.8333C24.1667 13.1703 23.9033 12.5344 23.4344 12.0655C22.9656 11.5967 22.3297 11.3333 21.6667 11.3333H18.3333C17.6703 11.3333 17.0344 11.5967 16.5656 12.0655C16.0967 12.5344 15.8333 13.1703 15.8333 13.8333V14.6666H14.1667C13.7064 14.6666 13.3333 15.0397 13.3333 15.5V27.1666C13.3333 27.8297 13.5967 28.4656 14.0656 28.9344C14.5344 29.4033 15.1703 29.6666 15.8333 29.6666H24.1667C24.8297 29.6666 25.4656 29.4033 25.9344 28.9344C26.4033 28.4656 26.6667 27.8297 26.6667 27.1666V15.5C26.6667 15.0397 26.2936 14.6666 25.8333 14.6666H24.1667ZM15 16.3333V27.1666C15 27.3877 15.0878 27.5996 15.2441 27.7559C15.4003 27.9122 15.6123 28 15.8333 28H24.1667C24.3877 28 24.5996 27.9122 24.7559 27.7559C24.9122 27.5996 25 27.3877 25 27.1666V16.3333H15Z" fill="black"/>
<path fill-rule="evenodd" clip-rule="evenodd" d="M18.3333 18.8333C18.7936 18.8333 19.1667 19.2064 19.1667 19.6666V24.6666C19.1667 25.1269 18.7936 25.5 18.3333 25.5C17.8731 25.5 17.5 25.1269 17.5 24.6666V19.6666C17.5 19.2064 17.8731 18.8333 18.3333 18.8333Z" fill="black"/>
<path fill-rule="evenodd" clip-rule="evenodd" d="M21.6667 18.8333C22.1269 18.8333 22.5 19.2064 22.5 19.6666V24.6666C22.5 25.1269 22.1269 25.5 21.6667 25.5C21.2064 25.5 20.8333 25.1269 20.8333 24.6666V19.6666C20.8333 19.2064 21.2064 18.8333 21.6667 18.8333Z" fill="black"/>
</svg>
